<svg width="21" height="20" viewBox="0 0 21 20" fill="none" xmlns="http://www.w3.org/2000/svg">
<rect width="21" height="20" fill="#1E1E1E"/>
<g clip-path="url(#clip0_221_711)">
<path fill-rule="evenodd" clip-rule="evenodd" d="M10.4687 0C4.67979 0 0 4.58331 0 10.2535C0 14.786 2.9985 18.6226 7.15822 19.9805C7.67829 20.0826 7.86879 19.7599 7.86879 19.4885C7.86879 19.2508 7.85164 18.436 7.85164 17.587C4.9395 18.1983 4.33307 16.3647 4.33307 16.3647C3.86507 15.1764 3.17164 14.871 3.17164 14.871C2.2185 14.2429 3.24107 14.2429 3.24107 14.2429C4.29836 14.3108 4.85314 15.2954 4.85314 15.2954C5.78893 16.857 7.29686 16.4158 7.9035 16.1441C7.99007 15.482 8.26757 15.0237 8.56222 14.7691C6.23957 14.5314 3.79586 13.6487 3.79586 9.71017C3.79586 8.58976 4.21157 7.67309 4.87029 6.96018C4.76636 6.7056 4.40229 5.65289 4.97443 4.24394C4.97443 4.24394 5.85836 3.97228 7.85143 5.29644C8.70473 5.07199 9.58473 4.95782 10.4687 4.95685C11.3526 4.95685 12.2537 5.07581 13.0858 5.29644C15.0791 3.97228 15.963 4.24394 15.963 4.24394C16.5351 5.65289 16.1709 6.7056 16.0669 6.96018C16.743 7.67309 17.1416 8.58976 17.1416 9.71017C17.1416 13.6487 14.6979 14.5143 12.3579 14.7691C12.7393 15.0916 13.0684 15.7026 13.0684 16.6703C13.0684 18.0453 13.0513 19.1489 13.0513 19.4883C13.0513 19.7599 13.242 20.0826 13.7619 19.9808C17.9216 18.6224 20.9201 14.786 20.9201 10.2535C20.9372 4.58331 16.2403 0 10.4687 0Z" fill="white"/>
</g>
<defs>
<clipPath id="clip0_221_711">
<rect width="21" height="20" fill="white"/>
</clipPath>
</defs>
</svg>
